<mxfile host="app.diagrams.net" modified="2023-11-07T14:36:46.118Z" agent="Mozilla/5.0 (Windows NT 10.0; Win64; x64) AppleWebKit/537.36 (KHTML, like Gecko) Chrome/119.0.0.0 Safari/537.36" etag="w4OZufxxH4A13RfsLuM1" version="22.0.8" type="github">
  <diagram name="Page-1" id="4SUP22MU-_aWb2Gvw8z4">
    <mxGraphModel dx="4435" dy="4110" grid="1" gridSize="10" guides="1" tooltips="1" connect="1" arrows="1" fold="1" page="1" pageScale="1" pageWidth="850" pageHeight="1100" math="0" shadow="0">
      <root>
        <mxCell id="0" />
        <mxCell id="1" parent="0" />
        <mxCell id="m40mH7SYoThZGJL1HZlu-1" value="HỆ THỐNG QUẢN LÍ THỜI KHÓA BIỂU" style="html=1;whiteSpace=wrap;fontFamily=Times New Roman;verticalAlign=top;fontSize=18;" vertex="1" parent="1">
          <mxGeometry x="130" y="-1200" width="930" height="1140" as="geometry" />
        </mxCell>
        <mxCell id="m40mH7SYoThZGJL1HZlu-2" value="Quản lí người dùng&lt;br&gt;" style="ellipse;whiteSpace=wrap;html=1;" vertex="1" parent="1">
          <mxGeometry x="585" y="-1110" width="140" height="70" as="geometry" />
        </mxCell>
        <mxCell id="m40mH7SYoThZGJL1HZlu-3" value="" style="strokeWidth=2;html=1;shape=mxgraph.flowchart.annotation_2;align=left;labelPosition=right;pointerEvents=1;direction=south;" vertex="1" parent="1">
          <mxGeometry x="565" y="-1040" width="180" height="50" as="geometry" />
        </mxCell>
        <mxCell id="m40mH7SYoThZGJL1HZlu-4" value="Thêm người dùng mới&amp;nbsp;" style="ellipse;whiteSpace=wrap;html=1;" vertex="1" parent="1">
          <mxGeometry x="675" y="-990" width="140" height="70" as="geometry" />
        </mxCell>
        <mxCell id="m40mH7SYoThZGJL1HZlu-5" value="Cập nhật thông tin&amp;nbsp;&lt;br&gt;người dùng cũ" style="ellipse;whiteSpace=wrap;html=1;" vertex="1" parent="1">
          <mxGeometry x="495" y="-990" width="140" height="70" as="geometry" />
        </mxCell>
        <mxCell id="m40mH7SYoThZGJL1HZlu-7" value="Đăng nhập/đăng kí" style="ellipse;whiteSpace=wrap;html=1;" vertex="1" parent="1">
          <mxGeometry x="580" y="-290" width="140" height="70" as="geometry" />
        </mxCell>
        <mxCell id="m40mH7SYoThZGJL1HZlu-9" value="Phân công giáo viên" style="ellipse;whiteSpace=wrap;html=1;" vertex="1" parent="1">
          <mxGeometry x="310" y="-990" width="140" height="70" as="geometry" />
        </mxCell>
        <mxCell id="m40mH7SYoThZGJL1HZlu-45" value="" style="edgeStyle=orthogonalEdgeStyle;rounded=0;orthogonalLoop=1;jettySize=auto;html=1;" edge="1" parent="1" source="m40mH7SYoThZGJL1HZlu-12" target="m40mH7SYoThZGJL1HZlu-28">
          <mxGeometry relative="1" as="geometry" />
        </mxCell>
        <mxCell id="m40mH7SYoThZGJL1HZlu-12" value="" style="strokeWidth=2;html=1;shape=mxgraph.flowchart.annotation_1;align=left;pointerEvents=1;direction=south;" vertex="1" parent="1">
          <mxGeometry x="745" y="-1015" width="180" height="25" as="geometry" />
        </mxCell>
        <mxCell id="m40mH7SYoThZGJL1HZlu-13" value="Kiểm tra thông tin&lt;br&gt;sinh viên" style="ellipse;whiteSpace=wrap;html=1;" vertex="1" parent="1">
          <mxGeometry x="855" y="-990" width="140" height="70" as="geometry" />
        </mxCell>
        <mxCell id="m40mH7SYoThZGJL1HZlu-14" value="" style="strokeWidth=2;html=1;shape=mxgraph.flowchart.annotation_1;align=left;pointerEvents=1;direction=south;" vertex="1" parent="1">
          <mxGeometry x="380" y="-1015" width="185" height="25" as="geometry" />
        </mxCell>
        <mxCell id="m40mH7SYoThZGJL1HZlu-15" value="Quản lý lịch dạy&amp;nbsp;&lt;br&gt;giảng viên" style="ellipse;whiteSpace=wrap;html=1;" vertex="1" parent="1">
          <mxGeometry x="310" y="-860" width="140" height="70" as="geometry" />
        </mxCell>
        <mxCell id="m40mH7SYoThZGJL1HZlu-16" value="&amp;lt;&amp;lt;mở rộng&amp;gt;&amp;gt;" style="endArrow=open;endSize=12;dashed=1;html=1;rounded=0;entryX=0.5;entryY=0;entryDx=0;entryDy=0;exitX=0.5;exitY=1;exitDx=0;exitDy=0;" edge="1" parent="1" source="m40mH7SYoThZGJL1HZlu-9" target="m40mH7SYoThZGJL1HZlu-15">
          <mxGeometry width="160" relative="1" as="geometry">
            <mxPoint x="620" y="-865.879019607845" as="sourcePoint" />
            <mxPoint x="468" y="-865.879019607845" as="targetPoint" />
          </mxGeometry>
        </mxCell>
        <mxCell id="m40mH7SYoThZGJL1HZlu-19" value="Mở lớp" style="ellipse;whiteSpace=wrap;html=1;" vertex="1" parent="1">
          <mxGeometry x="585" y="-750" width="140" height="70" as="geometry" />
        </mxCell>
        <mxCell id="m40mH7SYoThZGJL1HZlu-21" value="Xem thông tin cá nhân" style="ellipse;whiteSpace=wrap;html=1;" vertex="1" parent="1">
          <mxGeometry x="585" y="-160" width="140" height="70" as="geometry" />
        </mxCell>
        <mxCell id="m40mH7SYoThZGJL1HZlu-22" value="Theo dõi TKB" style="ellipse;whiteSpace=wrap;html=1;" vertex="1" parent="1">
          <mxGeometry x="585" y="-560" width="140" height="70" as="geometry" />
        </mxCell>
        <mxCell id="m40mH7SYoThZGJL1HZlu-23" value="ADMIN&lt;br&gt;" style="shape=umlActor;verticalLabelPosition=bottom;verticalAlign=top;html=1;" vertex="1" parent="1">
          <mxGeometry x="-90" y="-870" width="30" height="60" as="geometry" />
        </mxCell>
        <mxCell id="m40mH7SYoThZGJL1HZlu-25" value="" style="endArrow=classic;html=1;rounded=0;exitX=1;exitY=0.3333333333333333;exitDx=0;exitDy=0;exitPerimeter=0;entryX=0;entryY=0.5;entryDx=0;entryDy=0;edgeStyle=orthogonalEdgeStyle;" edge="1" parent="1" source="m40mH7SYoThZGJL1HZlu-23" target="m40mH7SYoThZGJL1HZlu-2">
          <mxGeometry width="50" height="50" relative="1" as="geometry">
            <mxPoint x="60" y="-750" as="sourcePoint" />
            <mxPoint x="110" y="-800" as="targetPoint" />
            <Array as="points">
              <mxPoint x="60" y="-850" />
              <mxPoint x="60" y="-1075" />
            </Array>
          </mxGeometry>
        </mxCell>
        <mxCell id="m40mH7SYoThZGJL1HZlu-26" value="" style="endArrow=classic;html=1;rounded=0;edgeStyle=orthogonalEdgeStyle;entryX=0;entryY=0.5;entryDx=0;entryDy=0;exitX=1;exitY=0.3333333333333333;exitDx=0;exitDy=0;exitPerimeter=0;" edge="1" parent="1" target="m40mH7SYoThZGJL1HZlu-19">
          <mxGeometry width="50" height="50" relative="1" as="geometry">
            <mxPoint x="-70" y="-850" as="sourcePoint" />
            <mxPoint x="575" y="-715" as="targetPoint" />
            <Array as="points">
              <mxPoint x="-60" y="-850" />
              <mxPoint x="-60" y="-840" />
              <mxPoint x="60" y="-840" />
              <mxPoint x="60" y="-715" />
            </Array>
          </mxGeometry>
        </mxCell>
        <mxCell id="m40mH7SYoThZGJL1HZlu-27" value="&amp;lt;&amp;lt;bao gồm&amp;gt;&amp;gt;" style="endArrow=open;endSize=12;dashed=1;html=1;rounded=0;entryX=0;entryY=0.5;entryDx=0;entryDy=0;exitX=1;exitY=0.5;exitDx=0;exitDy=0;" edge="1" parent="1" source="m40mH7SYoThZGJL1HZlu-2" target="m40mH7SYoThZGJL1HZlu-28">
          <mxGeometry width="160" relative="1" as="geometry">
            <mxPoint x="585" y="-891.4634146341464" as="sourcePoint" />
            <mxPoint x="845" y="-790" as="targetPoint" />
          </mxGeometry>
        </mxCell>
        <mxCell id="m40mH7SYoThZGJL1HZlu-28" value="Quản lý danh sách&lt;br&gt;giảng viên, sinh viên" style="ellipse;whiteSpace=wrap;html=1;" vertex="1" parent="1">
          <mxGeometry x="855" y="-1110" width="140" height="70" as="geometry" />
        </mxCell>
        <mxCell id="m40mH7SYoThZGJL1HZlu-30" value="" style="strokeWidth=2;html=1;shape=mxgraph.flowchart.annotation_2;align=left;labelPosition=right;pointerEvents=1;direction=south;" vertex="1" parent="1">
          <mxGeometry x="557.5" y="-490" width="195" height="50" as="geometry" />
        </mxCell>
        <mxCell id="m40mH7SYoThZGJL1HZlu-31" value="Đăng kí học" style="ellipse;whiteSpace=wrap;html=1;" vertex="1" parent="1">
          <mxGeometry x="490" y="-440" width="140" height="70" as="geometry" />
        </mxCell>
        <mxCell id="m40mH7SYoThZGJL1HZlu-32" value="Xem lịch trình &lt;br&gt;giảng dạy" style="ellipse;whiteSpace=wrap;html=1;" vertex="1" parent="1">
          <mxGeometry x="680" y="-440" width="140" height="70" as="geometry" />
        </mxCell>
        <mxCell id="m40mH7SYoThZGJL1HZlu-33" value="Giảng viên" style="shape=umlActor;verticalLabelPosition=bottom;verticalAlign=top;html=1;" vertex="1" parent="1">
          <mxGeometry x="1220" y="-425" width="30" height="60" as="geometry" />
        </mxCell>
        <mxCell id="m40mH7SYoThZGJL1HZlu-34" value="Sinh viên" style="shape=umlActor;verticalLabelPosition=bottom;verticalAlign=top;html=1;" vertex="1" parent="1">
          <mxGeometry x="-70" y="-290" width="30" height="60" as="geometry" />
        </mxCell>
        <mxCell id="m40mH7SYoThZGJL1HZlu-36" value="" style="endArrow=classic;html=1;rounded=0;exitX=0;exitY=0.3333333333333333;exitDx=0;exitDy=0;exitPerimeter=0;entryX=1;entryY=0.5;entryDx=0;entryDy=0;" edge="1" parent="1" source="m40mH7SYoThZGJL1HZlu-33" target="m40mH7SYoThZGJL1HZlu-32">
          <mxGeometry width="50" height="50" relative="1" as="geometry">
            <mxPoint x="670" y="-390" as="sourcePoint" />
            <mxPoint x="720" y="-440" as="targetPoint" />
          </mxGeometry>
        </mxCell>
        <mxCell id="m40mH7SYoThZGJL1HZlu-37" value="" style="endArrow=classic;html=1;rounded=0;exitX=1;exitY=0.3333333333333333;exitDx=0;exitDy=0;exitPerimeter=0;entryX=0.5;entryY=1;entryDx=0;entryDy=0;edgeStyle=orthogonalEdgeStyle;" edge="1" parent="1" source="m40mH7SYoThZGJL1HZlu-34" target="m40mH7SYoThZGJL1HZlu-31">
          <mxGeometry width="50" height="50" relative="1" as="geometry">
            <mxPoint x="590" y="-390" as="sourcePoint" />
            <mxPoint x="640" y="-440" as="targetPoint" />
            <Array as="points">
              <mxPoint x="60" y="-270" />
              <mxPoint x="60" y="-370" />
            </Array>
          </mxGeometry>
        </mxCell>
        <mxCell id="m40mH7SYoThZGJL1HZlu-38" value="" style="endArrow=classic;html=1;rounded=0;exitX=0;exitY=0.3333333333333333;exitDx=0;exitDy=0;exitPerimeter=0;entryX=1;entryY=0.5;entryDx=0;entryDy=0;edgeStyle=orthogonalEdgeStyle;" edge="1" parent="1" source="m40mH7SYoThZGJL1HZlu-33" target="m40mH7SYoThZGJL1HZlu-7">
          <mxGeometry width="50" height="50" relative="1" as="geometry">
            <mxPoint x="590" y="-390" as="sourcePoint" />
            <mxPoint x="640" y="-440" as="targetPoint" />
            <Array as="points">
              <mxPoint x="1180" y="-405" />
              <mxPoint x="1180" y="-255" />
            </Array>
          </mxGeometry>
        </mxCell>
        <mxCell id="m40mH7SYoThZGJL1HZlu-39" value="" style="endArrow=classic;html=1;rounded=0;exitX=0;exitY=0.3333333333333333;exitDx=0;exitDy=0;exitPerimeter=0;entryX=1;entryY=0.5;entryDx=0;entryDy=0;edgeStyle=orthogonalEdgeStyle;" edge="1" parent="1" source="m40mH7SYoThZGJL1HZlu-33" target="m40mH7SYoThZGJL1HZlu-21">
          <mxGeometry width="50" height="50" relative="1" as="geometry">
            <mxPoint x="590" y="-390" as="sourcePoint" />
            <mxPoint x="640" y="-440" as="targetPoint" />
          </mxGeometry>
        </mxCell>
        <mxCell id="m40mH7SYoThZGJL1HZlu-40" value="" style="endArrow=classic;html=1;rounded=0;exitX=1;exitY=0.3333333333333333;exitDx=0;exitDy=0;exitPerimeter=0;entryX=0;entryY=0.5;entryDx=0;entryDy=0;edgeStyle=orthogonalEdgeStyle;" edge="1" parent="1" source="m40mH7SYoThZGJL1HZlu-34" target="m40mH7SYoThZGJL1HZlu-7">
          <mxGeometry width="50" height="50" relative="1" as="geometry">
            <mxPoint x="590" y="-390" as="sourcePoint" />
            <mxPoint x="640" y="-440" as="targetPoint" />
          </mxGeometry>
        </mxCell>
        <mxCell id="m40mH7SYoThZGJL1HZlu-41" value="" style="endArrow=classic;html=1;rounded=0;exitX=1;exitY=0.3333333333333333;exitDx=0;exitDy=0;exitPerimeter=0;entryX=0;entryY=0.5;entryDx=0;entryDy=0;edgeStyle=orthogonalEdgeStyle;" edge="1" parent="1" source="m40mH7SYoThZGJL1HZlu-34" target="m40mH7SYoThZGJL1HZlu-21">
          <mxGeometry width="50" height="50" relative="1" as="geometry">
            <mxPoint x="590" y="-390" as="sourcePoint" />
            <mxPoint x="640" y="-440" as="targetPoint" />
          </mxGeometry>
        </mxCell>
        <mxCell id="m40mH7SYoThZGJL1HZlu-42" value="&amp;lt;&amp;lt;bao gồm&amp;gt;&amp;gt;" style="endArrow=open;endSize=12;dashed=1;html=1;rounded=0;exitX=0;exitY=0.5;exitDx=0;exitDy=0;entryX=1;entryY=0.5;entryDx=0;entryDy=0;" edge="1" parent="1" source="m40mH7SYoThZGJL1HZlu-31" target="m40mH7SYoThZGJL1HZlu-48">
          <mxGeometry width="160" relative="1" as="geometry">
            <mxPoint x="450.00310344827625" y="-532.5" as="sourcePoint" />
            <mxPoint x="366.21" y="-397.5" as="targetPoint" />
          </mxGeometry>
        </mxCell>
        <mxCell id="m40mH7SYoThZGJL1HZlu-48" value="Xem thời khóa biểu" style="ellipse;whiteSpace=wrap;html=1;" vertex="1" parent="1">
          <mxGeometry x="290" y="-480" width="140" height="70" as="geometry" />
        </mxCell>
      </root>
    </mxGraphModel>
  </diagram>
</mxfile>
